<mxfile host="app.diagrams.net" modified="2023-06-12T13:10:08.558Z" agent="Mozilla/5.0 (Macintosh; Intel Mac OS X 10_15_7) AppleWebKit/537.36 (KHTML, like Gecko) Chrome/114.0.0.0 Safari/537.36" etag="gVJsent6T4L1ssl4rdhy" version="21.3.5" type="google">
  <diagram name="Page-1" id="EuEnE5qBBvhNiQhrljIS">
    <mxGraphModel grid="1" page="1" gridSize="10" guides="1" tooltips="1" connect="1" arrows="1" fold="1" pageScale="1" pageWidth="850" pageHeight="1100" math="0" shadow="0">
      <root>
        <mxCell id="0" />
        <mxCell id="1" parent="0" />
        <mxCell id="VH6ROxre-vMW03PNUvN8-1" value="" style="rounded=0;whiteSpace=wrap;html=1;" vertex="1" parent="1">
          <mxGeometry x="80" y="-525" width="520" height="750" as="geometry" />
        </mxCell>
        <mxCell id="VH6ROxre-vMW03PNUvN8-2" value="Gost 2" style="shape=umlActor;verticalLabelPosition=bottom;verticalAlign=top;html=1;" vertex="1" parent="1">
          <mxGeometry x="-100" y="-260" width="30" height="60" as="geometry" />
        </mxCell>
        <mxCell id="VH6ROxre-vMW03PNUvN8-7" value="Rezervacija tura" style="ellipse;whiteSpace=wrap;html=1;" vertex="1" parent="1">
          <mxGeometry x="110" y="-450" width="135" height="60" as="geometry" />
        </mxCell>
        <mxCell id="VH6ROxre-vMW03PNUvN8-8" value="Ocenjivanje tura" style="ellipse;whiteSpace=wrap;html=1;" vertex="1" parent="1">
          <mxGeometry x="115" y="-370" width="135" height="60" as="geometry" />
        </mxCell>
        <mxCell id="VH6ROxre-vMW03PNUvN8-14" value="Prikaz tura" style="ellipse;whiteSpace=wrap;html=1;" vertex="1" parent="1">
          <mxGeometry x="110" y="-520" width="135" height="60" as="geometry" />
        </mxCell>
        <mxCell id="VH6ROxre-vMW03PNUvN8-15" value="Prikaz zahteva za turu" style="ellipse;whiteSpace=wrap;html=1;" vertex="1" parent="1">
          <mxGeometry x="100" y="-195" width="135" height="60" as="geometry" />
        </mxCell>
        <mxCell id="VH6ROxre-vMW03PNUvN8-16" value="Notifikacije" style="ellipse;whiteSpace=wrap;html=1;" vertex="1" parent="1">
          <mxGeometry x="110" y="-110" width="135" height="60" as="geometry" />
        </mxCell>
        <mxCell id="VH6ROxre-vMW03PNUvN8-17" value="Koriscenje i prikaz vaucera" style="ellipse;whiteSpace=wrap;html=1;" vertex="1" parent="1">
          <mxGeometry x="110" y="-40" width="135" height="60" as="geometry" />
        </mxCell>
        <mxCell id="VH6ROxre-vMW03PNUvN8-18" value="Prikaz slozenih tura" style="ellipse;whiteSpace=wrap;html=1;" vertex="1" parent="1">
          <mxGeometry x="110" y="80" width="135" height="60" as="geometry" />
        </mxCell>
        <mxCell id="VH6ROxre-vMW03PNUvN8-19" value="Pracenje ture" style="ellipse;whiteSpace=wrap;html=1;" vertex="1" parent="1">
          <mxGeometry x="115" y="-300" width="135" height="60" as="geometry" />
        </mxCell>
        <mxCell id="VH6ROxre-vMW03PNUvN8-20" value="" style="endArrow=classic;html=1;rounded=0;entryX=0.036;entryY=0.63;entryDx=0;entryDy=0;entryPerimeter=0;exitX=0.75;exitY=0.1;exitDx=0;exitDy=0;exitPerimeter=0;" edge="1" parent="1" source="VH6ROxre-vMW03PNUvN8-2" target="VH6ROxre-vMW03PNUvN8-14">
          <mxGeometry width="50" height="50" relative="1" as="geometry">
            <mxPoint x="40" y="-310" as="sourcePoint" />
            <mxPoint x="90" y="-360" as="targetPoint" />
          </mxGeometry>
        </mxCell>
        <mxCell id="VH6ROxre-vMW03PNUvN8-21" value="" style="endArrow=classic;html=1;rounded=0;entryX=0;entryY=0.5;entryDx=0;entryDy=0;exitX=0.667;exitY=0.667;exitDx=0;exitDy=0;exitPerimeter=0;" edge="1" parent="1" source="VH6ROxre-vMW03PNUvN8-2" target="VH6ROxre-vMW03PNUvN8-7">
          <mxGeometry width="50" height="50" relative="1" as="geometry">
            <mxPoint x="410" y="-140" as="sourcePoint" />
            <mxPoint x="460" y="-190" as="targetPoint" />
          </mxGeometry>
        </mxCell>
        <mxCell id="VH6ROxre-vMW03PNUvN8-23" value="" style="endArrow=classic;html=1;rounded=0;entryX=0;entryY=0.5;entryDx=0;entryDy=0;exitX=0.667;exitY=0.803;exitDx=0;exitDy=0;exitPerimeter=0;" edge="1" parent="1" source="VH6ROxre-vMW03PNUvN8-2" target="VH6ROxre-vMW03PNUvN8-8">
          <mxGeometry width="50" height="50" relative="1" as="geometry">
            <mxPoint x="430" y="-120" as="sourcePoint" />
            <mxPoint x="480" y="-170" as="targetPoint" />
          </mxGeometry>
        </mxCell>
        <mxCell id="VH6ROxre-vMW03PNUvN8-24" value="" style="endArrow=classic;html=1;rounded=0;entryX=0;entryY=0.5;entryDx=0;entryDy=0;exitX=0.88;exitY=0.857;exitDx=0;exitDy=0;exitPerimeter=0;" edge="1" parent="1" source="VH6ROxre-vMW03PNUvN8-2" target="VH6ROxre-vMW03PNUvN8-19">
          <mxGeometry width="50" height="50" relative="1" as="geometry">
            <mxPoint x="440" y="-110" as="sourcePoint" />
            <mxPoint x="490" y="-160" as="targetPoint" />
          </mxGeometry>
        </mxCell>
        <mxCell id="VH6ROxre-vMW03PNUvN8-25" value="" style="endArrow=classic;html=1;rounded=0;exitX=1;exitY=1;exitDx=0;exitDy=0;exitPerimeter=0;entryX=0;entryY=0.5;entryDx=0;entryDy=0;" edge="1" parent="1" source="VH6ROxre-vMW03PNUvN8-2" target="VH6ROxre-vMW03PNUvN8-15">
          <mxGeometry width="50" height="50" relative="1" as="geometry">
            <mxPoint x="450" y="-100" as="sourcePoint" />
            <mxPoint x="500" y="-150" as="targetPoint" />
          </mxGeometry>
        </mxCell>
        <mxCell id="VH6ROxre-vMW03PNUvN8-26" value="" style="endArrow=classic;html=1;rounded=0;exitX=1;exitY=1;exitDx=0;exitDy=0;exitPerimeter=0;entryX=0;entryY=0.5;entryDx=0;entryDy=0;" edge="1" parent="1" source="VH6ROxre-vMW03PNUvN8-2" target="VH6ROxre-vMW03PNUvN8-16">
          <mxGeometry width="50" height="50" relative="1" as="geometry">
            <mxPoint x="460" y="-90" as="sourcePoint" />
            <mxPoint x="510" y="-140" as="targetPoint" />
          </mxGeometry>
        </mxCell>
        <mxCell id="VH6ROxre-vMW03PNUvN8-27" value="" style="endArrow=classic;html=1;rounded=0;exitX=1;exitY=1;exitDx=0;exitDy=0;exitPerimeter=0;entryX=0;entryY=0.5;entryDx=0;entryDy=0;" edge="1" parent="1" source="VH6ROxre-vMW03PNUvN8-2" target="VH6ROxre-vMW03PNUvN8-17">
          <mxGeometry width="50" height="50" relative="1" as="geometry">
            <mxPoint x="470" y="-80" as="sourcePoint" />
            <mxPoint x="520" y="-130" as="targetPoint" />
          </mxGeometry>
        </mxCell>
        <mxCell id="VH6ROxre-vMW03PNUvN8-28" value="" style="endArrow=classic;html=1;rounded=0;entryX=0;entryY=0.5;entryDx=0;entryDy=0;" edge="1" parent="1" source="VH6ROxre-vMW03PNUvN8-2" target="VH6ROxre-vMW03PNUvN8-18">
          <mxGeometry width="50" height="50" relative="1" as="geometry">
            <mxPoint x="480" y="-70" as="sourcePoint" />
            <mxPoint x="530" y="-120" as="targetPoint" />
          </mxGeometry>
        </mxCell>
        <mxCell id="VH6ROxre-vMW03PNUvN8-36" value="&amp;lt;&amp;lt;extend&amp;gt;&amp;gt;" style="html=1;verticalAlign=bottom;labelBackgroundColor=none;endArrow=open;endFill=0;dashed=1;rounded=0;entryX=1;entryY=0.5;entryDx=0;entryDy=0;exitX=0;exitY=0.5;exitDx=0;exitDy=0;" edge="1" parent="1" source="VH6ROxre-vMW03PNUvN8-45" target="VH6ROxre-vMW03PNUvN8-18">
          <mxGeometry width="160" relative="1" as="geometry">
            <mxPoint x="350" y="-270" as="sourcePoint" />
            <mxPoint x="510" y="-270" as="targetPoint" />
          </mxGeometry>
        </mxCell>
        <mxCell id="VH6ROxre-vMW03PNUvN8-37" value="&amp;lt;&amp;lt;extend&amp;gt;&amp;gt;" style="html=1;verticalAlign=bottom;labelBackgroundColor=none;endArrow=open;endFill=0;dashed=1;rounded=0;entryX=0.991;entryY=0.723;entryDx=0;entryDy=0;entryPerimeter=0;exitX=0;exitY=0.5;exitDx=0;exitDy=0;" edge="1" parent="1" source="VH6ROxre-vMW03PNUvN8-43" target="VH6ROxre-vMW03PNUvN8-15">
          <mxGeometry width="160" relative="1" as="geometry">
            <mxPoint x="360" y="-260" as="sourcePoint" />
            <mxPoint x="520" y="-260" as="targetPoint" />
          </mxGeometry>
        </mxCell>
        <mxCell id="VH6ROxre-vMW03PNUvN8-38" value="&amp;lt;&amp;lt;extend&amp;gt;&amp;gt;" style="html=1;verticalAlign=bottom;labelBackgroundColor=none;endArrow=open;endFill=0;dashed=1;rounded=0;entryX=0.973;entryY=0.35;entryDx=0;entryDy=0;exitX=0;exitY=0.5;exitDx=0;exitDy=0;entryPerimeter=0;" edge="1" parent="1" source="VH6ROxre-vMW03PNUvN8-42" target="VH6ROxre-vMW03PNUvN8-15">
          <mxGeometry width="160" relative="1" as="geometry">
            <mxPoint x="370" y="-250" as="sourcePoint" />
            <mxPoint x="530" y="-250" as="targetPoint" />
          </mxGeometry>
        </mxCell>
        <mxCell id="VH6ROxre-vMW03PNUvN8-39" value="&amp;lt;&amp;lt;extend&amp;gt;&amp;gt;" style="html=1;verticalAlign=bottom;labelBackgroundColor=none;endArrow=open;endFill=0;dashed=1;rounded=0;entryX=1;entryY=0.5;entryDx=0;entryDy=0;exitX=0;exitY=0.5;exitDx=0;exitDy=0;" edge="1" parent="1" source="VH6ROxre-vMW03PNUvN8-40" target="VH6ROxre-vMW03PNUvN8-14">
          <mxGeometry width="160" relative="1" as="geometry">
            <mxPoint x="380" y="-240" as="sourcePoint" />
            <mxPoint x="540" y="-240" as="targetPoint" />
          </mxGeometry>
        </mxCell>
        <mxCell id="VH6ROxre-vMW03PNUvN8-40" value="Pretraga" style="ellipse;whiteSpace=wrap;html=1;" vertex="1" parent="1">
          <mxGeometry x="350" y="-520" width="120" height="60" as="geometry" />
        </mxCell>
        <mxCell id="VH6ROxre-vMW03PNUvN8-42" value="Kreiranje zahteva" style="ellipse;whiteSpace=wrap;html=1;" vertex="1" parent="1">
          <mxGeometry x="400" y="-255" width="120" height="60" as="geometry" />
        </mxCell>
        <mxCell id="VH6ROxre-vMW03PNUvN8-43" value="Statistika zahteva" style="ellipse;whiteSpace=wrap;html=1;" vertex="1" parent="1">
          <mxGeometry x="420" y="-170" width="120" height="60" as="geometry" />
        </mxCell>
        <mxCell id="VH6ROxre-vMW03PNUvN8-45" value="Kreiranje slozenog zahteva" style="ellipse;whiteSpace=wrap;html=1;" vertex="1" parent="1">
          <mxGeometry x="365" y="130" width="120" height="60" as="geometry" />
        </mxCell>
        <mxCell id="VH6ROxre-vMW03PNUvN8-46" value="Prikaz delova slozene ture" style="ellipse;whiteSpace=wrap;html=1;" vertex="1" parent="1">
          <mxGeometry x="350" y="40" width="120" height="60" as="geometry" />
        </mxCell>
        <mxCell id="f-wGyewL0Uz8oT5boowp-2" value="" style="rounded=0;whiteSpace=wrap;html=1;" vertex="1" parent="1">
          <mxGeometry x="-620" y="-550" width="440" height="740" as="geometry" />
        </mxCell>
        <mxCell id="f-wGyewL0Uz8oT5boowp-3" value="Gost1" style="shape=umlActor;verticalLabelPosition=bottom;verticalAlign=top;html=1;outlineConnect=0;whiteSpace=wrap;" vertex="1" parent="1">
          <mxGeometry x="-750" y="-170" width="30" height="60" as="geometry" />
        </mxCell>
        <mxCell id="f-wGyewL0Uz8oT5boowp-49" value="&amp;lt;&amp;lt;extend&amp;gt;&amp;gt;" style="html=1;verticalAlign=bottom;labelBackgroundColor=none;endArrow=open;endFill=0;dashed=1;rounded=0;exitX=0;exitY=0.5;exitDx=0;exitDy=0;" edge="1" parent="1" source="VH6ROxre-vMW03PNUvN8-46" target="VH6ROxre-vMW03PNUvN8-18">
          <mxGeometry width="160" relative="1" as="geometry">
            <mxPoint x="300" y="10" as="sourcePoint" />
            <mxPoint x="257.5800000000004" y="64.22000000000003" as="targetPoint" />
          </mxGeometry>
        </mxCell>
        <mxCell id="f-wGyewL0Uz8oT5boowp-55" value="Rezervacija smestaja" style="ellipse;whiteSpace=wrap;html=1;" vertex="1" parent="1">
          <mxGeometry x="-600" y="-420" width="135" height="60" as="geometry" />
        </mxCell>
        <mxCell id="f-wGyewL0Uz8oT5boowp-56" value="Ocenjivanje smestaja" style="ellipse;whiteSpace=wrap;html=1;" vertex="1" parent="1">
          <mxGeometry x="-600" y="-320" width="135" height="60" as="geometry" />
        </mxCell>
        <mxCell id="f-wGyewL0Uz8oT5boowp-57" value="Prikaz smestaja" style="ellipse;whiteSpace=wrap;html=1;" vertex="1" parent="1">
          <mxGeometry x="-600" y="-520" width="135" height="60" as="geometry" />
        </mxCell>
        <mxCell id="f-wGyewL0Uz8oT5boowp-58" value="Prikaz ocena" style="ellipse;whiteSpace=wrap;html=1;" vertex="1" parent="1">
          <mxGeometry x="-600" y="-230" width="135" height="60" as="geometry" />
        </mxCell>
        <mxCell id="f-wGyewL0Uz8oT5boowp-59" value="Zahtev za pomeranje" style="ellipse;whiteSpace=wrap;html=1;" vertex="1" parent="1">
          <mxGeometry x="-340" y="-140" width="135" height="60" as="geometry" />
        </mxCell>
        <mxCell id="f-wGyewL0Uz8oT5boowp-60" value="Prikaz foruma" style="ellipse;whiteSpace=wrap;html=1;" vertex="1" parent="1">
          <mxGeometry x="-590" y="60" width="135" height="60" as="geometry" />
        </mxCell>
        <mxCell id="f-wGyewL0Uz8oT5boowp-61" value="Zatvaranje foruma" style="ellipse;whiteSpace=wrap;html=1;" vertex="1" parent="1">
          <mxGeometry x="-332.5" y="100" width="135" height="60" as="geometry" />
        </mxCell>
        <mxCell id="f-wGyewL0Uz8oT5boowp-62" value="Preporuka za renoviranje" style="ellipse;whiteSpace=wrap;html=1;" vertex="1" parent="1">
          <mxGeometry x="-365" y="-330" width="135" height="60" as="geometry" />
        </mxCell>
        <mxCell id="f-wGyewL0Uz8oT5boowp-67" value="&amp;lt;&amp;lt;extend&amp;gt;&amp;gt;" style="html=1;verticalAlign=bottom;labelBackgroundColor=none;endArrow=open;endFill=0;dashed=1;rounded=0;entryX=1;entryY=0.5;entryDx=0;entryDy=0;exitX=0.016;exitY=0.45;exitDx=0;exitDy=0;exitPerimeter=0;" edge="1" parent="1" source="f-wGyewL0Uz8oT5boowp-70" target="f-wGyewL0Uz8oT5boowp-57">
          <mxGeometry x="-0.0204" y="-1" width="160" relative="1" as="geometry">
            <mxPoint x="-319" y="-500" as="sourcePoint" />
            <mxPoint x="-129" y="-250" as="targetPoint" />
            <Array as="points" />
            <mxPoint as="offset" />
          </mxGeometry>
        </mxCell>
        <mxCell id="f-wGyewL0Uz8oT5boowp-70" value="Pretraga smestaja" style="ellipse;whiteSpace=wrap;html=1;" vertex="1" parent="1">
          <mxGeometry x="-365" y="-540" width="120" height="60" as="geometry" />
        </mxCell>
        <mxCell id="KWU_rH0vEScwGRV952gv-1" value="&amp;lt;&amp;lt;extend&amp;gt;&amp;gt;" style="html=1;verticalAlign=bottom;labelBackgroundColor=none;endArrow=open;endFill=0;dashed=1;rounded=0;entryX=1;entryY=0.5;entryDx=0;entryDy=0;exitX=0;exitY=0.5;exitDx=0;exitDy=0;" edge="1" parent="1" source="KWU_rH0vEScwGRV952gv-2" target="VH6ROxre-vMW03PNUvN8-17">
          <mxGeometry width="160" relative="1" as="geometry">
            <mxPoint x="340" y="-53" as="sourcePoint" />
            <mxPoint x="259" y="-90" as="targetPoint" />
          </mxGeometry>
        </mxCell>
        <mxCell id="KWU_rH0vEScwGRV952gv-2" value="Osvajanje vaucera" style="ellipse;whiteSpace=wrap;html=1;" vertex="1" parent="1">
          <mxGeometry x="360" y="-40" width="120" height="60" as="geometry" />
        </mxCell>
        <mxCell id="f-wGyewL0Uz8oT5boowp-72" value="" style="endArrow=classic;html=1;rounded=0;exitX=0.5;exitY=0;exitDx=0;exitDy=0;exitPerimeter=0;entryX=0;entryY=0.5;entryDx=0;entryDy=0;" edge="1" parent="1" source="f-wGyewL0Uz8oT5boowp-3" target="f-wGyewL0Uz8oT5boowp-57">
          <mxGeometry width="50" height="50" relative="1" as="geometry">
            <mxPoint x="-700" y="-185" as="sourcePoint" />
            <mxPoint x="-650" y="-235" as="targetPoint" />
          </mxGeometry>
        </mxCell>
        <mxCell id="f-wGyewL0Uz8oT5boowp-73" value="" style="endArrow=classic;html=1;rounded=0;entryX=0.042;entryY=0.73;entryDx=0;entryDy=0;entryPerimeter=0;" edge="1" parent="1" source="f-wGyewL0Uz8oT5boowp-3" target="f-wGyewL0Uz8oT5boowp-56">
          <mxGeometry width="50" height="50" relative="1" as="geometry">
            <mxPoint x="-710" y="-152" as="sourcePoint" />
            <mxPoint x="-501" y="-461" as="targetPoint" />
          </mxGeometry>
        </mxCell>
        <mxCell id="f-wGyewL0Uz8oT5boowp-76" value="" style="endArrow=classic;html=1;rounded=0;entryX=0;entryY=0.5;entryDx=0;entryDy=0;" edge="1" parent="1" source="f-wGyewL0Uz8oT5boowp-3" target="vVvA8Mf4fcWXVOMHjkK1-16">
          <mxGeometry width="50" height="50" relative="1" as="geometry">
            <mxPoint x="-700" y="-130" as="sourcePoint" />
            <mxPoint x="-522" y="-243" as="targetPoint" />
          </mxGeometry>
        </mxCell>
        <mxCell id="f-wGyewL0Uz8oT5boowp-77" value="" style="endArrow=classic;html=1;rounded=0;entryX=0;entryY=0.5;entryDx=0;entryDy=0;" edge="1" parent="1" source="f-wGyewL0Uz8oT5boowp-3" target="f-wGyewL0Uz8oT5boowp-60">
          <mxGeometry width="50" height="50" relative="1" as="geometry">
            <mxPoint x="-690" y="-120" as="sourcePoint" />
            <mxPoint x="-512" y="-233" as="targetPoint" />
          </mxGeometry>
        </mxCell>
        <mxCell id="f-wGyewL0Uz8oT5boowp-78" value="" style="endArrow=classic;html=1;rounded=0;entryX=0.115;entryY=0.796;entryDx=0;entryDy=0;entryPerimeter=0;" edge="1" parent="1" source="f-wGyewL0Uz8oT5boowp-3" target="f-wGyewL0Uz8oT5boowp-58">
          <mxGeometry width="50" height="50" relative="1" as="geometry">
            <mxPoint x="-680" y="-110" as="sourcePoint" />
            <mxPoint x="-502" y="-223" as="targetPoint" />
          </mxGeometry>
        </mxCell>
        <mxCell id="f-wGyewL0Uz8oT5boowp-79" value="" style="endArrow=classic;html=1;rounded=0;exitX=0.75;exitY=0.1;exitDx=0;exitDy=0;exitPerimeter=0;entryX=0.075;entryY=0.74;entryDx=0;entryDy=0;entryPerimeter=0;" edge="1" parent="1" source="f-wGyewL0Uz8oT5boowp-3" target="f-wGyewL0Uz8oT5boowp-55">
          <mxGeometry width="50" height="50" relative="1" as="geometry">
            <mxPoint x="-710" y="-157" as="sourcePoint" />
            <mxPoint x="-539" y="-461" as="targetPoint" />
          </mxGeometry>
        </mxCell>
        <mxCell id="ImSnpAZVJ_8gglxPo0Ji-1" value="Vlasnik" style="shape=umlActor;verticalLabelPosition=bottom;verticalAlign=top;html=1;outlineConnect=0;" vertex="1" parent="1">
          <mxGeometry x="-280" y="320" width="30" height="60" as="geometry" />
        </mxCell>
        <mxCell id="ImSnpAZVJ_8gglxPo0Ji-2" value="Gost 1" style="shape=umlActor;verticalLabelPosition=bottom;verticalAlign=top;html=1;outlineConnect=0;" vertex="1" parent="1">
          <mxGeometry x="-275" y="480" width="30" height="60" as="geometry" />
        </mxCell>
        <mxCell id="ImSnpAZVJ_8gglxPo0Ji-3" value="Vodic" style="shape=umlActor;verticalLabelPosition=bottom;verticalAlign=top;html=1;outlineConnect=0;" vertex="1" parent="1">
          <mxGeometry x="-260" y="930" width="30" height="60" as="geometry" />
        </mxCell>
        <mxCell id="ImSnpAZVJ_8gglxPo0Ji-4" value="Gost2" style="shape=umlActor;verticalLabelPosition=bottom;verticalAlign=top;html=1;outlineConnect=0;" vertex="1" parent="1">
          <mxGeometry x="-260" y="1040" width="30" height="60" as="geometry" />
        </mxCell>
        <mxCell id="zERePA8gMP4fJaCTbcwj-80" style="edgeStyle=orthogonalEdgeStyle;rounded=0;orthogonalLoop=1;jettySize=auto;html=1;" edge="1" parent="1">
          <mxGeometry relative="1" as="geometry">
            <mxPoint x="-435" y="690" as="sourcePoint" />
            <mxPoint x="-270" y="490" as="targetPoint" />
            <Array as="points">
              <mxPoint x="-435" y="490" />
            </Array>
          </mxGeometry>
        </mxCell>
        <mxCell id="zERePA8gMP4fJaCTbcwj-82" style="edgeStyle=orthogonalEdgeStyle;rounded=0;orthogonalLoop=1;jettySize=auto;html=1;entryX=0;entryY=1;entryDx=0;entryDy=0;entryPerimeter=0;" edge="1" parent="1" target="ImSnpAZVJ_8gglxPo0Ji-4">
          <mxGeometry relative="1" as="geometry">
            <Array as="points">
              <mxPoint x="-465" y="1100" />
            </Array>
            <mxPoint x="-465" y="810" as="sourcePoint" />
          </mxGeometry>
        </mxCell>
        <mxCell id="zERePA8gMP4fJaCTbcwj-83" style="edgeStyle=orthogonalEdgeStyle;rounded=0;orthogonalLoop=1;jettySize=auto;html=1;" edge="1" parent="1" target="ImSnpAZVJ_8gglxPo0Ji-1">
          <mxGeometry relative="1" as="geometry">
            <Array as="points">
              <mxPoint x="-470" y="350" />
            </Array>
            <mxPoint x="-470" y="690" as="sourcePoint" />
          </mxGeometry>
        </mxCell>
        <mxCell id="ImSnpAZVJ_8gglxPo0Ji-5" value="Ulogovan korisnik" style="shape=umlActor;verticalLabelPosition=bottom;verticalAlign=top;html=1;outlineConnect=0;" vertex="1" parent="1">
          <mxGeometry x="-465" y="710" width="30" height="60" as="geometry" />
        </mxCell>
        <mxCell id="ImSnpAZVJ_8gglxPo0Ji-7" value="Odjava" style="ellipse;whiteSpace=wrap;html=1;" vertex="1" parent="1">
          <mxGeometry x="-260" y="710" width="120" height="80" as="geometry" />
        </mxCell>
        <mxCell id="ImSnpAZVJ_8gglxPo0Ji-17" value="" style="endArrow=classic;html=1;rounded=0;entryX=-0.011;entryY=0.364;entryDx=0;entryDy=0;entryPerimeter=0;exitX=0.5;exitY=0.5;exitDx=0;exitDy=0;exitPerimeter=0;" edge="1" parent="1" source="ImSnpAZVJ_8gglxPo0Ji-5" target="ImSnpAZVJ_8gglxPo0Ji-7">
          <mxGeometry width="50" height="50" relative="1" as="geometry">
            <mxPoint x="-270" y="790" as="sourcePoint" />
            <mxPoint x="-82" y="668" as="targetPoint" />
          </mxGeometry>
        </mxCell>
        <mxCell id="gUkVydNfRuhArUwKAbFG-1" value="" style="rounded=0;whiteSpace=wrap;html=1;rotation=0;" vertex="1" parent="1">
          <mxGeometry x="270" y="330" width="500" height="740" as="geometry" />
        </mxCell>
        <mxCell id="gUkVydNfRuhArUwKAbFG-2" value="Owner" style="shape=umlActor;verticalLabelPosition=bottom;verticalAlign=top;html=1;outlineConnect=0;" vertex="1" parent="1">
          <mxGeometry x="170" y="710" width="30" height="60" as="geometry" />
        </mxCell>
        <mxCell id="gUkVydNfRuhArUwKAbFG-3" value="&lt;font style=&quot;font-size: 11px;&quot;&gt;Registracija smestaja&lt;/font&gt;" style="ellipse;whiteSpace=wrap;html=1;" vertex="1" parent="1">
          <mxGeometry x="365" y="340" width="100" height="60" as="geometry" />
        </mxCell>
        <mxCell id="gUkVydNfRuhArUwKAbFG-4" value="&lt;font style=&quot;font-size: 11px;&quot;&gt;Statistika o smestaju&lt;/font&gt;" style="ellipse;whiteSpace=wrap;html=1;" vertex="1" parent="1">
          <mxGeometry x="365" y="410" width="100" height="60" as="geometry" />
        </mxCell>
        <mxCell id="gUkVydNfRuhArUwKAbFG-5" value="&lt;font style=&quot;font-size: 11px;&quot;&gt;Predlog sistema&lt;/font&gt;" style="ellipse;whiteSpace=wrap;html=1;" vertex="1" parent="1">
          <mxGeometry x="365" y="480" width="100" height="60" as="geometry" />
        </mxCell>
        <mxCell id="gUkVydNfRuhArUwKAbFG-6" value="&lt;font style=&quot;font-size: 11px;&quot;&gt;Pomeranje rezervacije&lt;/font&gt;" style="ellipse;whiteSpace=wrap;html=1;" vertex="1" parent="1">
          <mxGeometry x="365" y="550" width="100" height="60" as="geometry" />
        </mxCell>
        <mxCell id="gUkVydNfRuhArUwKAbFG-7" value="&lt;font style=&quot;font-size: 11px;&quot;&gt;Ocenjivanje gostiju&lt;/font&gt;" style="ellipse;whiteSpace=wrap;html=1;" vertex="1" parent="1">
          <mxGeometry x="550" y="620" width="100" height="60" as="geometry" />
        </mxCell>
        <mxCell id="gUkVydNfRuhArUwKAbFG-8" value="&lt;span style=&quot;font-size: 11px;&quot;&gt;Prikaz recenzija&lt;/span&gt;" style="ellipse;whiteSpace=wrap;html=1;" vertex="1" parent="1">
          <mxGeometry x="370" y="620" width="100" height="60" as="geometry" />
        </mxCell>
        <mxCell id="gUkVydNfRuhArUwKAbFG-9" value="&lt;span style=&quot;font-size: 11px;&quot;&gt;Super vlasnik&lt;/span&gt;" style="ellipse;whiteSpace=wrap;html=1;" vertex="1" parent="1">
          <mxGeometry x="365" y="690" width="100" height="60" as="geometry" />
        </mxCell>
        <mxCell id="gUkVydNfRuhArUwKAbFG-10" value="&lt;span style=&quot;font-size: 11px;&quot;&gt;Zakazivanje renoviranja&lt;/span&gt;" style="ellipse;whiteSpace=wrap;html=1;" vertex="1" parent="1">
          <mxGeometry x="365" y="760" width="100" height="60" as="geometry" />
        </mxCell>
        <mxCell id="gUkVydNfRuhArUwKAbFG-11" value="&lt;span style=&quot;font-size: 11px;&quot;&gt;Prikaz renoviranja&lt;/span&gt;" style="ellipse;whiteSpace=wrap;html=1;" vertex="1" parent="1">
          <mxGeometry x="365" y="840" width="100" height="60" as="geometry" />
        </mxCell>
        <mxCell id="gUkVydNfRuhArUwKAbFG-12" value="&lt;span style=&quot;font-size: 11px;&quot;&gt;Obavestenje o forumu&lt;/span&gt;" style="ellipse;whiteSpace=wrap;html=1;" vertex="1" parent="1">
          <mxGeometry x="370" y="920" width="100" height="60" as="geometry" />
        </mxCell>
        <mxCell id="gUkVydNfRuhArUwKAbFG-13" value="&lt;span style=&quot;font-size: 11px;&quot;&gt;Prijava komentara na forumu&lt;/span&gt;" style="ellipse;whiteSpace=wrap;html=1;" vertex="1" parent="1">
          <mxGeometry x="320" y="990" width="100" height="60" as="geometry" />
        </mxCell>
        <mxCell id="gUkVydNfRuhArUwKAbFG-14" value="&lt;font style=&quot;font-size: 11px;&quot;&gt;Registracija smestaja&lt;/font&gt;" style="ellipse;whiteSpace=wrap;html=1;" vertex="1" parent="1">
          <mxGeometry x="530" y="430" width="100" height="60" as="geometry" />
        </mxCell>
        <mxCell id="gUkVydNfRuhArUwKAbFG-15" value="&lt;font style=&quot;font-size: 11px;&quot;&gt;Uklanjanje postojeceg&lt;/font&gt;" style="ellipse;whiteSpace=wrap;html=1;" vertex="1" parent="1">
          <mxGeometry x="530" y="500" width="100" height="60" as="geometry" />
        </mxCell>
        <mxCell id="gUkVydNfRuhArUwKAbFG-16" value="&amp;lt;&amp;lt;extend&amp;gt;&amp;gt;" style="html=1;verticalAlign=bottom;labelBackgroundColor=none;endArrow=open;endFill=0;dashed=1;rounded=0;entryX=1.017;entryY=0.333;entryDx=0;entryDy=0;entryPerimeter=0;exitX=0.038;exitY=0.65;exitDx=0;exitDy=0;exitPerimeter=0;" edge="1" parent="1" source="gUkVydNfRuhArUwKAbFG-14" target="gUkVydNfRuhArUwKAbFG-5">
          <mxGeometry width="160" relative="1" as="geometry">
            <mxPoint x="480" y="480" as="sourcePoint" />
            <mxPoint x="620" y="490" as="targetPoint" />
          </mxGeometry>
        </mxCell>
        <mxCell id="gUkVydNfRuhArUwKAbFG-17" value="&amp;lt;&amp;lt;extend&amp;gt;&amp;gt;" style="html=1;verticalAlign=bottom;labelBackgroundColor=none;endArrow=open;endFill=0;dashed=1;rounded=0;entryX=0.79;entryY=0.909;entryDx=0;entryDy=0;entryPerimeter=0;exitX=0;exitY=1;exitDx=0;exitDy=0;" edge="1" parent="1" source="gUkVydNfRuhArUwKAbFG-15" target="gUkVydNfRuhArUwKAbFG-5">
          <mxGeometry width="160" relative="1" as="geometry">
            <mxPoint x="470" y="506" as="sourcePoint" />
            <mxPoint x="545" y="484" as="targetPoint" />
            <Array as="points">
              <mxPoint x="480" y="540" />
            </Array>
          </mxGeometry>
        </mxCell>
        <mxCell id="gUkVydNfRuhArUwKAbFG-18" value="&lt;font style=&quot;font-size: 11px;&quot;&gt;Otkazivanje renoviranja&lt;/font&gt;" style="ellipse;whiteSpace=wrap;html=1;" vertex="1" parent="1">
          <mxGeometry x="545" y="840" width="100" height="60" as="geometry" />
        </mxCell>
        <mxCell id="gUkVydNfRuhArUwKAbFG-19" value="&amp;lt;&amp;lt;extend&amp;gt;&amp;gt;" style="html=1;verticalAlign=bottom;labelBackgroundColor=none;endArrow=open;endFill=0;dashed=1;rounded=0;exitX=0.089;exitY=0.767;exitDx=0;exitDy=0;exitPerimeter=0;entryX=0.945;entryY=0.681;entryDx=0;entryDy=0;entryPerimeter=0;" edge="1" parent="1" source="gUkVydNfRuhArUwKAbFG-18" target="gUkVydNfRuhArUwKAbFG-11">
          <mxGeometry width="160" relative="1" as="geometry">
            <mxPoint x="465" y="871" as="sourcePoint" />
            <mxPoint x="560" y="824" as="targetPoint" />
            <Array as="points">
              <mxPoint x="495" y="880" />
            </Array>
          </mxGeometry>
        </mxCell>
        <mxCell id="gUkVydNfRuhArUwKAbFG-20" value="&amp;lt;&amp;lt;extend&amp;gt;&amp;gt;" style="html=1;verticalAlign=bottom;labelBackgroundColor=none;endArrow=open;endFill=0;dashed=1;rounded=0;entryX=0.972;entryY=0.632;entryDx=0;entryDy=0;entryPerimeter=0;exitX=0.024;exitY=0.735;exitDx=0;exitDy=0;exitPerimeter=0;" edge="1" parent="1" source="gUkVydNfRuhArUwKAbFG-7" target="gUkVydNfRuhArUwKAbFG-8">
          <mxGeometry x="-0.0888" y="10" width="160" relative="1" as="geometry">
            <mxPoint x="454" y="661" as="sourcePoint" />
            <mxPoint x="535" y="665" as="targetPoint" />
            <Array as="points">
              <mxPoint x="505" y="660" />
            </Array>
            <mxPoint as="offset" />
          </mxGeometry>
        </mxCell>
        <mxCell id="gUkVydNfRuhArUwKAbFG-21" value="" style="endArrow=classic;html=1;rounded=0;entryX=0;entryY=0.5;entryDx=0;entryDy=0;" edge="1" parent="1" target="gUkVydNfRuhArUwKAbFG-3">
          <mxGeometry width="50" height="50" relative="1" as="geometry">
            <mxPoint x="190" y="710" as="sourcePoint" />
            <mxPoint x="240" y="660" as="targetPoint" />
          </mxGeometry>
        </mxCell>
        <mxCell id="gUkVydNfRuhArUwKAbFG-22" value="" style="endArrow=classic;html=1;rounded=0;entryX=0;entryY=0.5;entryDx=0;entryDy=0;" edge="1" parent="1" target="gUkVydNfRuhArUwKAbFG-4">
          <mxGeometry width="50" height="50" relative="1" as="geometry">
            <mxPoint x="200" y="720" as="sourcePoint" />
            <mxPoint x="375" y="380" as="targetPoint" />
          </mxGeometry>
        </mxCell>
        <mxCell id="gUkVydNfRuhArUwKAbFG-23" value="" style="endArrow=classic;html=1;rounded=0;" edge="1" parent="1" target="gUkVydNfRuhArUwKAbFG-5">
          <mxGeometry width="50" height="50" relative="1" as="geometry">
            <mxPoint x="200" y="730" as="sourcePoint" />
            <mxPoint x="375" y="390" as="targetPoint" />
          </mxGeometry>
        </mxCell>
        <mxCell id="gUkVydNfRuhArUwKAbFG-24" value="" style="endArrow=classic;html=1;rounded=0;" edge="1" parent="1" source="gUkVydNfRuhArUwKAbFG-2" target="gUkVydNfRuhArUwKAbFG-8">
          <mxGeometry width="50" height="50" relative="1" as="geometry">
            <mxPoint x="220" y="740" as="sourcePoint" />
            <mxPoint x="395" y="400" as="targetPoint" />
          </mxGeometry>
        </mxCell>
        <mxCell id="gUkVydNfRuhArUwKAbFG-25" value="" style="endArrow=classic;html=1;rounded=0;" edge="1" parent="1" target="gUkVydNfRuhArUwKAbFG-9">
          <mxGeometry width="50" height="50" relative="1" as="geometry">
            <mxPoint x="200" y="740" as="sourcePoint" />
            <mxPoint x="405" y="410" as="targetPoint" />
          </mxGeometry>
        </mxCell>
        <mxCell id="gUkVydNfRuhArUwKAbFG-26" value="" style="endArrow=classic;html=1;rounded=0;" edge="1" parent="1" source="gUkVydNfRuhArUwKAbFG-2" target="gUkVydNfRuhArUwKAbFG-10">
          <mxGeometry width="50" height="50" relative="1" as="geometry">
            <mxPoint x="240" y="760" as="sourcePoint" />
            <mxPoint x="415" y="420" as="targetPoint" />
          </mxGeometry>
        </mxCell>
        <mxCell id="gUkVydNfRuhArUwKAbFG-27" value="" style="endArrow=classic;html=1;rounded=0;" edge="1" parent="1" source="gUkVydNfRuhArUwKAbFG-2" target="gUkVydNfRuhArUwKAbFG-11">
          <mxGeometry width="50" height="50" relative="1" as="geometry">
            <mxPoint x="250" y="770" as="sourcePoint" />
            <mxPoint x="425" y="430" as="targetPoint" />
          </mxGeometry>
        </mxCell>
        <mxCell id="gUkVydNfRuhArUwKAbFG-28" value="" style="endArrow=classic;html=1;rounded=0;" edge="1" parent="1" source="gUkVydNfRuhArUwKAbFG-2" target="gUkVydNfRuhArUwKAbFG-12">
          <mxGeometry width="50" height="50" relative="1" as="geometry">
            <mxPoint x="260" y="780" as="sourcePoint" />
            <mxPoint x="435" y="440" as="targetPoint" />
          </mxGeometry>
        </mxCell>
        <mxCell id="gUkVydNfRuhArUwKAbFG-29" value="" style="endArrow=classic;html=1;rounded=0;" edge="1" parent="1" source="gUkVydNfRuhArUwKAbFG-2" target="gUkVydNfRuhArUwKAbFG-13">
          <mxGeometry width="50" height="50" relative="1" as="geometry">
            <mxPoint x="270" y="790" as="sourcePoint" />
            <mxPoint x="445" y="450" as="targetPoint" />
          </mxGeometry>
        </mxCell>
        <mxCell id="gUkVydNfRuhArUwKAbFG-30" value="&lt;font style=&quot;font-size: 11px;&quot;&gt;Pisanje komentara&lt;/font&gt;" style="ellipse;whiteSpace=wrap;html=1;" vertex="1" parent="1">
          <mxGeometry x="552" y="920" width="100" height="60" as="geometry" />
        </mxCell>
        <mxCell id="gUkVydNfRuhArUwKAbFG-31" value="&amp;lt;&amp;lt;extend&amp;gt;&amp;gt;" style="html=1;verticalAlign=bottom;labelBackgroundColor=none;endArrow=open;endFill=0;dashed=1;rounded=0;entryX=0.935;entryY=0.75;entryDx=0;entryDy=0;entryPerimeter=0;" edge="1" parent="1" source="gUkVydNfRuhArUwKAbFG-30" target="gUkVydNfRuhArUwKAbFG-12">
          <mxGeometry width="160" relative="1" as="geometry">
            <mxPoint x="470" y="960" as="sourcePoint" />
            <mxPoint x="567" y="904" as="targetPoint" />
            <Array as="points">
              <mxPoint x="502" y="960" />
            </Array>
          </mxGeometry>
        </mxCell>
        <mxCell id="gUkVydNfRuhArUwKAbFG-32" value="" style="endArrow=classic;html=1;rounded=0;" edge="1" parent="1" source="gUkVydNfRuhArUwKAbFG-2" target="gUkVydNfRuhArUwKAbFG-6">
          <mxGeometry width="50" height="50" relative="1" as="geometry">
            <mxPoint x="210" y="744" as="sourcePoint" />
            <mxPoint x="388" y="676" as="targetPoint" />
          </mxGeometry>
        </mxCell>
        <mxCell id="zERePA8gMP4fJaCTbcwj-32" value="" style="rounded=0;whiteSpace=wrap;html=1;" vertex="1" parent="1">
          <mxGeometry x="110" y="1110" width="700" height="810" as="geometry" />
        </mxCell>
        <mxCell id="zERePA8gMP4fJaCTbcwj-33" value="Vodic" style="shape=umlActor;verticalLabelPosition=bottom;verticalAlign=top;html=1;" vertex="1" parent="1">
          <mxGeometry x="-40" y="1415" width="30" height="60" as="geometry" />
        </mxCell>
        <mxCell id="zERePA8gMP4fJaCTbcwj-34" value="Kreiranje nove ture" style="ellipse;whiteSpace=wrap;html=1;" vertex="1" parent="1">
          <mxGeometry x="170" y="1390" width="135" height="60" as="geometry" />
        </mxCell>
        <mxCell id="zERePA8gMP4fJaCTbcwj-35" value="Otkaz" style="ellipse;whiteSpace=wrap;html=1;" vertex="1" parent="1">
          <mxGeometry x="160" y="1470" width="135" height="60" as="geometry" />
        </mxCell>
        <mxCell id="zERePA8gMP4fJaCTbcwj-36" value="Prikaz tura" style="ellipse;whiteSpace=wrap;html=1;" vertex="1" parent="1">
          <mxGeometry x="170" y="1230" width="135" height="60" as="geometry" />
        </mxCell>
        <mxCell id="zERePA8gMP4fJaCTbcwj-37" value="Prikaz zahteva za turu" style="ellipse;whiteSpace=wrap;html=1;" vertex="1" parent="1">
          <mxGeometry x="160" y="1620" width="135" height="60" as="geometry" />
        </mxCell>
        <mxCell id="zERePA8gMP4fJaCTbcwj-38" value="Notifikacije" style="ellipse;whiteSpace=wrap;html=1;" vertex="1" parent="1">
          <mxGeometry x="170" y="1710" width="135" height="60" as="geometry" />
        </mxCell>
        <mxCell id="zERePA8gMP4fJaCTbcwj-41" value="Super vodic" style="ellipse;whiteSpace=wrap;html=1;" vertex="1" parent="1">
          <mxGeometry x="160" y="1540" width="135" height="60" as="geometry" />
        </mxCell>
        <mxCell id="zERePA8gMP4fJaCTbcwj-42" value="" style="endArrow=classic;html=1;rounded=0;entryX=0.036;entryY=0.63;entryDx=0;entryDy=0;entryPerimeter=0;exitX=0.75;exitY=0.1;exitDx=0;exitDy=0;exitPerimeter=0;" edge="1" parent="1" source="zERePA8gMP4fJaCTbcwj-33" target="zERePA8gMP4fJaCTbcwj-36">
          <mxGeometry width="50" height="50" relative="1" as="geometry">
            <mxPoint x="100" y="1365" as="sourcePoint" />
            <mxPoint x="150" y="1315" as="targetPoint" />
          </mxGeometry>
        </mxCell>
        <mxCell id="zERePA8gMP4fJaCTbcwj-43" value="" style="endArrow=classic;html=1;rounded=0;entryX=0;entryY=0.5;entryDx=0;entryDy=0;exitX=0.667;exitY=0.667;exitDx=0;exitDy=0;exitPerimeter=0;" edge="1" parent="1" source="zERePA8gMP4fJaCTbcwj-33" target="zERePA8gMP4fJaCTbcwj-34">
          <mxGeometry width="50" height="50" relative="1" as="geometry">
            <mxPoint x="470" y="1535" as="sourcePoint" />
            <mxPoint x="520" y="1485" as="targetPoint" />
          </mxGeometry>
        </mxCell>
        <mxCell id="zERePA8gMP4fJaCTbcwj-44" value="" style="endArrow=classic;html=1;rounded=0;entryX=0;entryY=0.5;entryDx=0;entryDy=0;exitX=0.667;exitY=0.803;exitDx=0;exitDy=0;exitPerimeter=0;" edge="1" parent="1" source="zERePA8gMP4fJaCTbcwj-33" target="zERePA8gMP4fJaCTbcwj-35">
          <mxGeometry width="50" height="50" relative="1" as="geometry">
            <mxPoint x="490" y="1555" as="sourcePoint" />
            <mxPoint x="540" y="1505" as="targetPoint" />
          </mxGeometry>
        </mxCell>
        <mxCell id="zERePA8gMP4fJaCTbcwj-45" value="" style="endArrow=classic;html=1;rounded=0;entryX=0;entryY=0.5;entryDx=0;entryDy=0;exitX=0.88;exitY=0.857;exitDx=0;exitDy=0;exitPerimeter=0;" edge="1" parent="1" source="zERePA8gMP4fJaCTbcwj-33" target="zERePA8gMP4fJaCTbcwj-41">
          <mxGeometry width="50" height="50" relative="1" as="geometry">
            <mxPoint x="500" y="1565" as="sourcePoint" />
            <mxPoint x="550" y="1515" as="targetPoint" />
          </mxGeometry>
        </mxCell>
        <mxCell id="zERePA8gMP4fJaCTbcwj-46" value="" style="endArrow=classic;html=1;rounded=0;exitX=1;exitY=1;exitDx=0;exitDy=0;exitPerimeter=0;entryX=0;entryY=0.5;entryDx=0;entryDy=0;" edge="1" parent="1" source="zERePA8gMP4fJaCTbcwj-33" target="zERePA8gMP4fJaCTbcwj-37">
          <mxGeometry width="50" height="50" relative="1" as="geometry">
            <mxPoint x="510" y="1575" as="sourcePoint" />
            <mxPoint x="560" y="1525" as="targetPoint" />
          </mxGeometry>
        </mxCell>
        <mxCell id="zERePA8gMP4fJaCTbcwj-47" value="" style="endArrow=classic;html=1;rounded=0;exitX=1;exitY=1;exitDx=0;exitDy=0;exitPerimeter=0;entryX=0;entryY=0.5;entryDx=0;entryDy=0;" edge="1" parent="1" source="zERePA8gMP4fJaCTbcwj-33" target="zERePA8gMP4fJaCTbcwj-38">
          <mxGeometry width="50" height="50" relative="1" as="geometry">
            <mxPoint x="520" y="1585" as="sourcePoint" />
            <mxPoint x="570" y="1535" as="targetPoint" />
          </mxGeometry>
        </mxCell>
        <mxCell id="zERePA8gMP4fJaCTbcwj-51" value="&amp;lt;&amp;lt;extend&amp;gt;&amp;gt;" style="html=1;verticalAlign=bottom;labelBackgroundColor=none;endArrow=open;endFill=0;dashed=1;rounded=0;entryX=0.991;entryY=0.723;entryDx=0;entryDy=0;entryPerimeter=0;exitX=0;exitY=0.5;exitDx=0;exitDy=0;" edge="1" parent="1" source="zERePA8gMP4fJaCTbcwj-56" target="zERePA8gMP4fJaCTbcwj-37">
          <mxGeometry width="160" relative="1" as="geometry">
            <mxPoint x="420" y="1415" as="sourcePoint" />
            <mxPoint x="580" y="1415" as="targetPoint" />
          </mxGeometry>
        </mxCell>
        <mxCell id="zERePA8gMP4fJaCTbcwj-52" value="&amp;lt;&amp;lt;extend&amp;gt;&amp;gt;" style="html=1;verticalAlign=bottom;labelBackgroundColor=none;endArrow=open;endFill=0;dashed=1;rounded=0;entryX=0.973;entryY=0.35;entryDx=0;entryDy=0;exitX=0;exitY=0.5;exitDx=0;exitDy=0;entryPerimeter=0;" edge="1" parent="1" source="zERePA8gMP4fJaCTbcwj-55" target="zERePA8gMP4fJaCTbcwj-37">
          <mxGeometry width="160" relative="1" as="geometry">
            <mxPoint x="430" y="1425" as="sourcePoint" />
            <mxPoint x="590" y="1425" as="targetPoint" />
          </mxGeometry>
        </mxCell>
        <mxCell id="zERePA8gMP4fJaCTbcwj-53" value="&amp;lt;&amp;lt;extend&amp;gt;&amp;gt;" style="html=1;verticalAlign=bottom;labelBackgroundColor=none;endArrow=open;endFill=0;dashed=1;rounded=0;entryX=1;entryY=0.5;entryDx=0;entryDy=0;exitX=0;exitY=0.5;exitDx=0;exitDy=0;" edge="1" parent="1" source="zERePA8gMP4fJaCTbcwj-54" target="zERePA8gMP4fJaCTbcwj-36">
          <mxGeometry width="160" relative="1" as="geometry">
            <mxPoint x="440" y="1435" as="sourcePoint" />
            <mxPoint x="600" y="1435" as="targetPoint" />
          </mxGeometry>
        </mxCell>
        <mxCell id="zERePA8gMP4fJaCTbcwj-54" value="Pretraga" style="ellipse;whiteSpace=wrap;html=1;" vertex="1" parent="1">
          <mxGeometry x="410" y="1130" width="120" height="60" as="geometry" />
        </mxCell>
        <mxCell id="zERePA8gMP4fJaCTbcwj-55" value="Prihvatanje zahteva" style="ellipse;whiteSpace=wrap;html=1;" vertex="1" parent="1">
          <mxGeometry x="490" y="1600" width="120" height="60" as="geometry" />
        </mxCell>
        <mxCell id="zERePA8gMP4fJaCTbcwj-56" value="Statistika zahteva" style="ellipse;whiteSpace=wrap;html=1;" vertex="1" parent="1">
          <mxGeometry x="485" y="1670" width="120" height="60" as="geometry" />
        </mxCell>
        <mxCell id="zERePA8gMP4fJaCTbcwj-64" value="&amp;lt;&amp;lt;extend&amp;gt;&amp;gt;" style="html=1;verticalAlign=bottom;labelBackgroundColor=none;endArrow=open;endFill=0;dashed=1;rounded=0;entryX=1;entryY=1;entryDx=0;entryDy=0;exitX=0;exitY=0.5;exitDx=0;exitDy=0;" edge="1" parent="1" source="zERePA8gMP4fJaCTbcwj-65" target="zERePA8gMP4fJaCTbcwj-36">
          <mxGeometry width="160" relative="1" as="geometry">
            <mxPoint x="462" y="1520" as="sourcePoint" />
            <mxPoint x="327" y="1270" as="targetPoint" />
          </mxGeometry>
        </mxCell>
        <mxCell id="zERePA8gMP4fJaCTbcwj-65" value="Pracenje ture uzivo" style="ellipse;whiteSpace=wrap;html=1;" vertex="1" parent="1">
          <mxGeometry x="410" y="1200" width="120" height="60" as="geometry" />
        </mxCell>
        <mxCell id="zERePA8gMP4fJaCTbcwj-68" value="Neulogovan" style="shape=umlActor;verticalLabelPosition=bottom;verticalAlign=top;html=1;outlineConnect=0;" vertex="1" parent="1">
          <mxGeometry x="-970" y="710" width="30" height="60" as="geometry" />
        </mxCell>
        <mxCell id="zERePA8gMP4fJaCTbcwj-78" style="edgeStyle=orthogonalEdgeStyle;rounded=0;orthogonalLoop=1;jettySize=auto;html=1;" edge="1" parent="1" source="zERePA8gMP4fJaCTbcwj-69" target="ImSnpAZVJ_8gglxPo0Ji-5">
          <mxGeometry relative="1" as="geometry" />
        </mxCell>
        <mxCell id="zERePA8gMP4fJaCTbcwj-69" value="Prijava" style="ellipse;whiteSpace=wrap;html=1;" vertex="1" parent="1">
          <mxGeometry x="-730" y="700" width="120" height="80" as="geometry" />
        </mxCell>
        <mxCell id="VO6oIp-8rQ7NJeboTmFS-1" style="edgeStyle=orthogonalEdgeStyle;rounded=0;orthogonalLoop=1;jettySize=auto;html=1;" edge="1" parent="1">
          <mxGeometry relative="1" as="geometry">
            <Array as="points">
              <mxPoint x="-430" y="960" />
            </Array>
            <mxPoint x="-430" y="810" as="sourcePoint" />
            <mxPoint x="-250" y="960" as="targetPoint" />
          </mxGeometry>
        </mxCell>
        <mxCell id="zERePA8gMP4fJaCTbcwj-84" value="&amp;lt;&amp;lt;extend&amp;gt;&amp;gt;" style="html=1;verticalAlign=bottom;labelBackgroundColor=none;endArrow=open;endFill=0;dashed=1;rounded=0;exitX=0;exitY=0.5;exitDx=0;exitDy=0;" edge="1" parent="1" source="zERePA8gMP4fJaCTbcwj-85">
          <mxGeometry width="160" relative="1" as="geometry">
            <mxPoint x="512" y="1590" as="sourcePoint" />
            <mxPoint x="290" y="1280" as="targetPoint" />
          </mxGeometry>
        </mxCell>
        <mxCell id="zERePA8gMP4fJaCTbcwj-86" value="&amp;lt;&amp;lt;extend&amp;gt;&amp;gt;" style="html=1;verticalAlign=bottom;labelBackgroundColor=none;endArrow=open;endFill=0;dashed=1;rounded=0;entryX=0.704;entryY=0.933;entryDx=0;entryDy=0;exitX=0;exitY=0.5;exitDx=0;exitDy=0;entryPerimeter=0;" edge="1" parent="1" source="zERePA8gMP4fJaCTbcwj-87" target="zERePA8gMP4fJaCTbcwj-36">
          <mxGeometry width="160" relative="1" as="geometry">
            <mxPoint x="487" y="1660" as="sourcePoint" />
            <mxPoint x="310" y="1346" as="targetPoint" />
          </mxGeometry>
        </mxCell>
        <mxCell id="zERePA8gMP4fJaCTbcwj-85" value="Otkazivanej ture" style="ellipse;whiteSpace=wrap;html=1;" vertex="1" parent="1">
          <mxGeometry x="420" y="1270" width="120" height="60" as="geometry" />
        </mxCell>
        <mxCell id="zERePA8gMP4fJaCTbcwj-87" value="Statistika o turama" style="ellipse;whiteSpace=wrap;html=1;" vertex="1" parent="1">
          <mxGeometry x="410" y="1340" width="120" height="60" as="geometry" />
        </mxCell>
        <mxCell id="zERePA8gMP4fJaCTbcwj-88" value="&amp;lt;&amp;lt;extend&amp;gt;&amp;gt;" style="html=1;verticalAlign=bottom;labelBackgroundColor=none;endArrow=open;endFill=0;dashed=1;rounded=0;entryX=0.385;entryY=0.95;entryDx=0;entryDy=0;exitX=0;exitY=0.5;exitDx=0;exitDy=0;entryPerimeter=0;" edge="1" parent="1" source="zERePA8gMP4fJaCTbcwj-89" target="zERePA8gMP4fJaCTbcwj-36">
          <mxGeometry width="160" relative="1" as="geometry">
            <mxPoint x="514.5" y="1735" as="sourcePoint" />
            <mxPoint x="337.5" y="1421" as="targetPoint" />
          </mxGeometry>
        </mxCell>
        <mxCell id="zERePA8gMP4fJaCTbcwj-89" value="Prikaz recenzija" style="ellipse;whiteSpace=wrap;html=1;" vertex="1" parent="1">
          <mxGeometry x="380" y="1415" width="120" height="60" as="geometry" />
        </mxCell>
        <mxCell id="zERePA8gMP4fJaCTbcwj-94" value="&amp;lt;&amp;lt;extend&amp;gt;&amp;gt;" style="html=1;verticalAlign=bottom;labelBackgroundColor=none;endArrow=open;endFill=0;dashed=1;rounded=0;entryX=1;entryY=0;entryDx=0;entryDy=0;exitX=0;exitY=0.5;exitDx=0;exitDy=0;" edge="1" parent="1" source="zERePA8gMP4fJaCTbcwj-95" target="zERePA8gMP4fJaCTbcwj-37">
          <mxGeometry width="160" relative="1" as="geometry">
            <mxPoint x="430" y="1355" as="sourcePoint" />
            <mxPoint x="291" y="1571" as="targetPoint" />
          </mxGeometry>
        </mxCell>
        <mxCell id="zERePA8gMP4fJaCTbcwj-95" value="Prihvatanje della ture u zahtevu za slozenu turu" style="ellipse;whiteSpace=wrap;html=1;" vertex="1" parent="1">
          <mxGeometry x="490" y="1530" width="120" height="60" as="geometry" />
        </mxCell>
        <mxCell id="VO6oIp-8rQ7NJeboTmFS-2" style="edgeStyle=orthogonalEdgeStyle;rounded=0;orthogonalLoop=1;jettySize=auto;html=1;entryX=0;entryY=0.5;entryDx=0;entryDy=0;" edge="1" parent="1" target="zERePA8gMP4fJaCTbcwj-69">
          <mxGeometry relative="1" as="geometry">
            <mxPoint x="-930" y="739.52" as="sourcePoint" />
            <mxPoint x="-785" y="739.52" as="targetPoint" />
          </mxGeometry>
        </mxCell>
        <mxCell id="zERePA8gMP4fJaCTbcwj-97" value="Kreiranje ture spram statistike o zahtevima" style="ellipse;whiteSpace=wrap;html=1;" vertex="1" parent="1">
          <mxGeometry x="670" y="1710" width="135" height="50" as="geometry" />
        </mxCell>
        <mxCell id="zERePA8gMP4fJaCTbcwj-99" value="&amp;lt;&amp;lt;extend&amp;gt;&amp;gt;" style="html=1;verticalAlign=bottom;labelBackgroundColor=none;endArrow=open;endFill=0;dashed=1;rounded=0;entryX=0.975;entryY=0.667;entryDx=0;entryDy=0;entryPerimeter=0;exitX=0;exitY=0.5;exitDx=0;exitDy=0;" edge="1" parent="1" source="zERePA8gMP4fJaCTbcwj-97" target="zERePA8gMP4fJaCTbcwj-56">
          <mxGeometry width="160" relative="1" as="geometry">
            <mxPoint x="796" y="1737" as="sourcePoint" />
            <mxPoint x="605" y="1700" as="targetPoint" />
          </mxGeometry>
        </mxCell>
        <mxCell id="zERePA8gMP4fJaCTbcwj-100" value="&amp;lt;&amp;lt;extend&amp;gt;&amp;gt;" style="html=1;verticalAlign=bottom;labelBackgroundColor=none;endArrow=open;endFill=0;dashed=1;rounded=0;entryX=0.658;entryY=0.983;entryDx=0;entryDy=0;exitX=0;exitY=0.5;exitDx=0;exitDy=0;entryPerimeter=0;" edge="1" parent="1" source="zERePA8gMP4fJaCTbcwj-101" target="zERePA8gMP4fJaCTbcwj-89">
          <mxGeometry width="160" relative="1" as="geometry">
            <mxPoint x="746.98" y="1769.98" as="sourcePoint" />
            <mxPoint x="457.52" y="1440" as="targetPoint" />
          </mxGeometry>
        </mxCell>
        <mxCell id="zERePA8gMP4fJaCTbcwj-101" value="Prijava recenzije" style="ellipse;whiteSpace=wrap;html=1;" vertex="1" parent="1">
          <mxGeometry x="612.48" y="1449.98" width="120" height="60" as="geometry" />
        </mxCell>
        <mxCell id="vVvA8Mf4fcWXVOMHjkK1-2" value="Otkazivanje rezervacije" style="ellipse;whiteSpace=wrap;html=1;" vertex="1" parent="1">
          <mxGeometry x="-332.5" y="-220" width="135" height="60" as="geometry" />
        </mxCell>
        <mxCell id="vVvA8Mf4fcWXVOMHjkK1-3" value="" style="ellipse;whiteSpace=wrap;html=1;" vertex="1" parent="1">
          <mxGeometry x="-120" y="-215" width="120" height="80" as="geometry" />
        </mxCell>
        <mxCell id="vVvA8Mf4fcWXVOMHjkK1-6" value="Komentarisanje na postojecem forumu" style="ellipse;whiteSpace=wrap;html=1;" vertex="1" parent="1">
          <mxGeometry x="-340" y="20" width="135" height="60" as="geometry" />
        </mxCell>
        <mxCell id="vVvA8Mf4fcWXVOMHjkK1-7" value="Otvaranje novog foruma" style="ellipse;whiteSpace=wrap;html=1;" vertex="1" parent="1">
          <mxGeometry x="-340" y="-50" width="135" height="60" as="geometry" />
        </mxCell>
        <mxCell id="vVvA8Mf4fcWXVOMHjkK1-8" value="" style="endArrow=none;dashed=1;html=1;rounded=0;" edge="1" parent="1">
          <mxGeometry width="50" height="50" relative="1" as="geometry">
            <mxPoint x="-90" y="-150" as="sourcePoint" />
            <mxPoint x="-40" y="-200" as="targetPoint" />
          </mxGeometry>
        </mxCell>
        <mxCell id="vVvA8Mf4fcWXVOMHjkK1-9" value="" style="endArrow=none;dashed=1;html=1;dashPattern=1 3;strokeWidth=2;rounded=0;" edge="1" parent="1">
          <mxGeometry width="50" height="50" relative="1" as="geometry">
            <mxPoint x="-90" y="-150" as="sourcePoint" />
            <mxPoint x="-40" y="-200" as="targetPoint" />
          </mxGeometry>
        </mxCell>
        <mxCell id="vVvA8Mf4fcWXVOMHjkK1-12" value="&amp;lt;&amp;lt;extend&amp;gt;&amp;gt;" style="html=1;verticalAlign=bottom;labelBackgroundColor=none;endArrow=open;endFill=0;dashed=1;rounded=0;entryX=0.926;entryY=0.217;entryDx=0;entryDy=0;entryPerimeter=0;exitX=0.03;exitY=0.7;exitDx=0;exitDy=0;exitPerimeter=0;" edge="1" parent="1" source="vVvA8Mf4fcWXVOMHjkK1-7" target="f-wGyewL0Uz8oT5boowp-60">
          <mxGeometry width="160" relative="1" as="geometry">
            <mxPoint x="-400" y="80" as="sourcePoint" />
            <mxPoint x="-586" y="68" as="targetPoint" />
          </mxGeometry>
        </mxCell>
        <mxCell id="vVvA8Mf4fcWXVOMHjkK1-13" value="&amp;lt;&amp;lt;extend&amp;gt;&amp;gt;" style="html=1;verticalAlign=bottom;labelBackgroundColor=none;endArrow=open;endFill=0;dashed=1;rounded=0;exitX=0;exitY=0.5;exitDx=0;exitDy=0;entryX=1;entryY=0.5;entryDx=0;entryDy=0;" edge="1" parent="1" source="vVvA8Mf4fcWXVOMHjkK1-6" target="f-wGyewL0Uz8oT5boowp-60">
          <mxGeometry width="160" relative="1" as="geometry">
            <mxPoint x="-406" y="-58" as="sourcePoint" />
            <mxPoint x="-460" y="-10" as="targetPoint" />
          </mxGeometry>
        </mxCell>
        <mxCell id="vVvA8Mf4fcWXVOMHjkK1-14" value="&amp;lt;&amp;lt;extend&amp;gt;&amp;gt;" style="html=1;verticalAlign=bottom;labelBackgroundColor=none;endArrow=open;endFill=0;dashed=1;rounded=0;entryX=1;entryY=1;entryDx=0;entryDy=0;exitX=0;exitY=0.5;exitDx=0;exitDy=0;" edge="1" parent="1" source="f-wGyewL0Uz8oT5boowp-61" target="f-wGyewL0Uz8oT5boowp-60">
          <mxGeometry width="160" relative="1" as="geometry">
            <mxPoint x="-396" y="-48" as="sourcePoint" />
            <mxPoint x="-455" y="3" as="targetPoint" />
          </mxGeometry>
        </mxCell>
        <mxCell id="vVvA8Mf4fcWXVOMHjkK1-16" value="Prikaz rezervacija" style="ellipse;whiteSpace=wrap;html=1;" vertex="1" parent="1">
          <mxGeometry x="-610" y="-100" width="135" height="60" as="geometry" />
        </mxCell>
        <mxCell id="vVvA8Mf4fcWXVOMHjkK1-17" value="&amp;lt;&amp;lt;extend&amp;gt;&amp;gt;" style="html=1;verticalAlign=bottom;labelBackgroundColor=none;endArrow=open;endFill=0;dashed=1;rounded=0;exitX=0.007;exitY=0.633;exitDx=0;exitDy=0;exitPerimeter=0;" edge="1" parent="1" source="f-wGyewL0Uz8oT5boowp-59" target="vVvA8Mf4fcWXVOMHjkK1-16">
          <mxGeometry width="160" relative="1" as="geometry">
            <mxPoint x="-296" y="-150" as="sourcePoint" />
            <mxPoint x="-465" y="-99" as="targetPoint" />
          </mxGeometry>
        </mxCell>
        <mxCell id="vVvA8Mf4fcWXVOMHjkK1-18" value="&amp;lt;&amp;lt;extend&amp;gt;&amp;gt;" style="html=1;verticalAlign=bottom;labelBackgroundColor=none;endArrow=open;endFill=0;dashed=1;rounded=0;exitX=0;exitY=0.5;exitDx=0;exitDy=0;entryX=0.807;entryY=0.15;entryDx=0;entryDy=0;entryPerimeter=0;" edge="1" parent="1" source="vVvA8Mf4fcWXVOMHjkK1-2" target="vVvA8Mf4fcWXVOMHjkK1-16">
          <mxGeometry width="160" relative="1" as="geometry">
            <mxPoint x="-332.5" y="-200" as="sourcePoint" />
            <mxPoint x="-500" y="-149" as="targetPoint" />
          </mxGeometry>
        </mxCell>
        <mxCell id="vVvA8Mf4fcWXVOMHjkK1-19" value="Bilo gde/ bilo kada" style="ellipse;whiteSpace=wrap;html=1;" vertex="1" parent="1">
          <mxGeometry x="-365" y="-470" width="120" height="60" as="geometry" />
        </mxCell>
        <mxCell id="vVvA8Mf4fcWXVOMHjkK1-20" value="&amp;lt;&amp;lt;extend&amp;gt;&amp;gt;" style="html=1;verticalAlign=bottom;labelBackgroundColor=none;endArrow=open;endFill=0;dashed=1;rounded=0;entryX=0.921;entryY=0.763;entryDx=0;entryDy=0;exitX=0;exitY=0.5;exitDx=0;exitDy=0;entryPerimeter=0;" edge="1" parent="1" source="vVvA8Mf4fcWXVOMHjkK1-19" target="f-wGyewL0Uz8oT5boowp-57">
          <mxGeometry x="-0.0204" y="-1" width="160" relative="1" as="geometry">
            <mxPoint x="-353" y="-503" as="sourcePoint" />
            <mxPoint x="-455" y="-480" as="targetPoint" />
            <Array as="points" />
            <mxPoint as="offset" />
          </mxGeometry>
        </mxCell>
        <mxCell id="vVvA8Mf4fcWXVOMHjkK1-22" value="&amp;lt;&amp;lt;extend&amp;gt;&amp;gt;" style="html=1;verticalAlign=bottom;labelBackgroundColor=none;endArrow=open;endFill=0;dashed=1;rounded=0;entryX=1;entryY=0.5;entryDx=0;entryDy=0;exitX=0;exitY=0.5;exitDx=0;exitDy=0;" edge="1" parent="1" source="f-wGyewL0Uz8oT5boowp-62" target="f-wGyewL0Uz8oT5boowp-56">
          <mxGeometry x="-0.0204" y="-1" width="160" relative="1" as="geometry">
            <mxPoint x="-369" y="-253" as="sourcePoint" />
            <mxPoint x="-480" y="-287" as="targetPoint" />
            <Array as="points" />
            <mxPoint as="offset" />
          </mxGeometry>
        </mxCell>
      </root>
    </mxGraphModel>
  </diagram>
</mxfile>
